{
  "source": "C:\\Users\\mbnyau\\Desktop\\stuff\\MIUN\\quantitative_research\\video_compression\\videos\\UVG\\Jockey_1920x1080_120fps_420_8bit_YUV.y4m",
  "output": "C:\\Users\\mbnyau\\Desktop\\stuff\\MIUN\\quantitative_research\\video_compression\\compressed_videos\\UVG\\h264\\1\\Jockey_1920x1080_120fps_420_8bit_YUV_h264.mp4",
  "codec": "h264",
  "ok": "[yuv4mpegpipe @ 000001cf513d6140] Stream #0: not enough frames to estimate rate; consider increasing probesize\nInput #0, yuv4mpegpipe, from 'C:\\Users\\mbnyau\\Desktop\\stuff\\MIUN\\quantitative_research\\video_compression\\videos\\UVG\\Jockey_1920x1080_120fps_420_8bit_YUV.y4m':\n  Duration: 00:00:05.00, start: 0.000000, bitrate: 2985989 kb/s\n  Stream #0:0: Video: rawvideo (I420 / 0x30323449), yuv420p(progressive), 1920x1080, 120 fps, 120 tbr, 120 tbn\n[out#0/mp4 @ 000001cf513d7a00] Codec AVOption b:a (set bitrate (in bits/s)) has not been used for any stream. The most likely reason is either wrong type (e.g. a video option with no video streams) or that it is a private option of some decoder which was not actually used for any stream.\nStream mapping:\n  Stream #0:0 -> #0:0 (rawvideo (native) -> h264 (libx264))\nPress [q] to stop, [?] for help\n[libx264 @ 000001cf513dd580] using cpu capabilities: MMX2 SSE2Fast SSSE3 SSE4.2 AVX FMA3 BMI2 AVX2\n[libx264 @ 000001cf513dd580] profile High, level 5.1, 4:2:0, 8-bit\n[libx264 @ 000001cf513dd580] 264 - core 165 r3222 b35605a - H.264/MPEG-4 AVC codec - Copyleft 2003-2025 - http://www.videolan.org/x264.html - options: cabac=1 ref=5 deblock=1:0:0 analyse=0x3:0x113 me=hex subme=8 psy=1 psy_rd=1.00:0.00 mixed_ref=1 me_range=16 chroma_me=1 trellis=2 8x8dct=1 cqm=0 deadzone=21,11 fast_pskip=1 chroma_qp_offset=-2 threads=18 lookahead_threads=3 sliced_threads=0 nr=0 decimate=1 interlaced=0 bluray_compat=0 constrained_intra=0 bframes=3 b_pyramid=2 b_adapt=1 b_bias=0 direct=3 weightb=1 open_gop=0 weightp=2 keyint=250 keyint_min=25 scenecut=40 intra_refresh=0 rc_lookahead=50 rc=cbr mbtree=1 bitrate=1000 ratetol=1.0 qcomp=0.60 qpmin=0 qpmax=69 qpstep=4 vbv_maxrate=1000 vbv_bufsize=1000 nal_hrd=none filler=0 ip_ratio=1.40 aq=1:1.00\nOutput #0, mp4, to 'C:\\Users\\mbnyau\\Desktop\\stuff\\MIUN\\quantitative_research\\video_compression\\compressed_videos\\UVG\\h264\\1\\Jockey_1920x1080_120fps_420_8bit_YUV_h264.mp4':\n  Metadata:\n    encoder         : Lavf62.3.100\n  Stream #0:0: Video: h264 (avc1 / 0x31637661), yuv420p(tv, progressive), 1920x1080, q=2-31, 1000 kb/s, 120 fps, 15360 tbn\n    Metadata:\n      encoder         : Lavc62.11.100 libx264\n    Side data:\n      cpb: bitrate max/min/avg: 1000000/0/1000000 buffer size: 1000000 vbv_delay: N/A\nframe=    1 fps=0.0 q=56.0 size=       0KiB time=-00:00:00.00 bitrate=N/A speed=N/A elapsed=0:00:00.51    \nframe=   60 fps= 58 q=54.0 size=       0KiB time=00:00:00.48 bitrate=   0.8kbits/s speed=0.468x elapsed=0:00:01.03    \nframe=  116 fps= 75 q=55.0 size=       0KiB time=00:00:00.95 bitrate=   0.4kbits/s speed=0.613x elapsed=0:00:01.55    \nframe=  172 fps= 83 q=58.0 size=       0KiB time=00:00:01.41 bitrate=   0.3kbits/s speed=0.684x elapsed=0:00:02.06    \nframe=  224 fps= 87 q=61.0 size=       0KiB time=00:00:01.85 bitrate=   0.2kbits/s speed=0.715x elapsed=0:00:02.58    \nframe=  252 fps= 81 q=60.0 size=     256KiB time=00:00:02.08 bitrate=1006.8kbits/s speed=0.67x elapsed=0:00:03.10    \nframe=  310 fps= 85 q=60.0 size=     256KiB time=00:00:02.56 bitrate= 817.2kbits/s speed=0.708x elapsed=0:00:03.62    \nframe=  369 fps= 89 q=61.0 size=     256KiB time=00:00:03.05 bitrate= 685.8kbits/s speed=0.74x elapsed=0:00:04.13    \nframe=  399 fps= 86 q=57.0 size=     256KiB time=00:00:03.30 bitrate= 634.0kbits/s speed=0.711x elapsed=0:00:04.65    \nframe=  430 fps= 83 q=54.0 size=     256KiB time=00:00:03.56 bitrate= 588.1kbits/s speed=0.69x elapsed=0:00:05.17    \nframe=  455 fps= 80 q=53.0 size=     256KiB time=00:00:03.77 bitrate= 555.6kbits/s speed=0.663x elapsed=0:00:05.68    \nframe=  481 fps= 77 q=52.0 size=     256KiB time=00:00:03.99 bitrate= 525.5kbits/s speed=0.643x elapsed=0:00:06.20    \nframe=  507 fps= 75 q=52.0 size=     256KiB time=00:00:04.20 bitrate= 498.4kbits/s speed=0.626x elapsed=0:00:06.72    \n[mp4 @ 000001cf513d7b00] Starting second pass: moving the moov atom to the beginning of the file\n[out#0/mp4 @ 000001cf513d7a00] video:592KiB audio:0KiB subtitle:0KiB other streams:0KiB global headers:0KiB muxing overhead: 1.185652%\nframe=  600 fps= 84 q=-1.0 Lsize=     599KiB time=00:00:04.98 bitrate= 984.1kbits/s speed=0.694x elapsed=0:00:07.18    \n[libx264 @ 000001cf513dd580] frame I:7     Avg QP:49.94  size:  3219\n[libx264 @ 000001cf513dd580] frame P:230   Avg QP:50.89  size:  1623\n[libx264 @ 000001cf513dd580] frame B:363   Avg QP:50.96  size:   577\n[libx264 @ 000001cf513dd580] consecutive B-frames: 16.2%  5.7% 11.5% 66.7%\n[libx264 @ 000001cf513dd580] mb I  I16..4: 22.0% 78.0%  0.0%\n[libx264 @ 000001cf513dd580] mb P  I16..4:  8.1%  8.1%  0.0%  P16..4:  4.0%  0.1%  0.4%  0.0%  0.0%    skip:79.3%\n[libx264 @ 000001cf513dd580] mb B  I16..4:  0.1%  0.0%  0.0%  B16..8:  5.8%  0.0%  0.0%  direct: 0.3%  skip:93.8%  L0:42.5% L1:57.4% BI: 0.1%\n[libx264 @ 000001cf513dd580] 8x8 transform intra:54.3% inter:98.4%\n[libx264 @ 000001cf513dd580] direct mvs  spatial:95.0% temporal:5.0%\n[libx264 @ 000001cf513dd580] coded y,uvDC,uvAC intra: 0.5% 19.7% 0.0% inter: 0.0% 0.6% 0.0%\n[libx264 @ 000001cf513dd580] i16 v,h,dc,p: 59% 34%  2%  4%\n[libx264 @ 000001cf513dd580] i8 v,h,dc,ddl,ddr,vr,hd,vl,hu: 10%  6% 83%  0%  0%  0%  0%  0%  0%\n[libx264 @ 000001cf513dd580] i4 v,h,dc,ddl,ddr,vr,hd,vl,hu: 53% 11%  3% 12%  6%  4%  4%  2%  3%\n[libx264 @ 000001cf513dd580] i8c dc,h,v,p: 96%  3%  1%  0%\n[libx264 @ 000001cf513dd580] Weighted P-Frames: Y:0.0% UV:0.0%\n[libx264 @ 000001cf513dd580] ref P L0: 57.1%  0.4% 23.0%  9.7%  8.0%  1.7%\n[libx264 @ 000001cf513dd580] ref B L0: 71.2% 18.3%  8.8%  1.8%\n[libx264 @ 000001cf513dd580] ref B L1: 88.0% 12.0%\n[libx264 @ 000001cf513dd580] kb/s:968.10\n",
  "seconds": 7.256160497665405,
  "probe_out": {}
}